<svg width="39" height="56" viewBox="0 0 39 56" fill="none" xmlns="http://www.w3.org/2000/svg">
<path d="M1.85059 42.1763H19.2909H36.7312" stroke="#7EB693" stroke-width="2" stroke-miterlimit="10"/>
<path d="M5.79102 48.6079L19.291 48.6079L32.791 48.6079" stroke="#7EB693" stroke-width="2" stroke-miterlimit="10"/>
<path d="M18.791 1.6079L18.791 8.6079L18.791 15.6079" stroke="#7EB693" stroke-width="2" stroke-miterlimit="10"/>
<path d="M18.8657 14.8921V41.3237" stroke="#7EB693" stroke-width="2" stroke-miterlimit="10"/>
<path d="M29.9254 4.66064L18.8657 15.7448" stroke="#7EB693" stroke-width="2" stroke-miterlimit="10"/>
<path d="M34.1792 8.92382L18.8657 24.2712" stroke="#7EB693" stroke-width="2" stroke-miterlimit="10"/>
<path d="M36.7314 15.7446L18.8657 32.7973" stroke="#7EB693" stroke-width="2" stroke-miterlimit="10"/>
<path d="M37.5821 23.4184L18.8657 42.1763" stroke="#7EB693" stroke-width="2" stroke-miterlimit="10"/>
<path d="M37.582 31.9448L27.373 42.1764" stroke="#7EB693" stroke-width="2" stroke-miterlimit="10"/>
<path d="M1 31.9448L11.209 42.1764" stroke="#7EB693" stroke-width="2" stroke-miterlimit="10"/>
<path d="M8.65674 4.66064L18.8657 15.7448" stroke="#7EB693" stroke-width="2" stroke-miterlimit="10"/>
<path d="M4.40283 8.92382L18.8655 24.2712" stroke="#7EB693" stroke-width="2" stroke-miterlimit="10"/>
<path d="M1.85059 14.8921L18.8655 32.7973" stroke="#7EB693" stroke-width="2" stroke-miterlimit="10"/>
<path d="M1 22.5659L18.8657 41.3238" stroke="#7EB693" stroke-width="2" stroke-miterlimit="10"/>
<path d="M19.291 54.9658C9.19019 54.9658 1 46.5135 1 36.0851V20.1306C1 9.70418 9.19019 1.24999 19.291 1.24999C29.3937 1.24999 37.5821 9.70418 37.5821 20.1306V36.0851C37.5839 46.5135 29.3937 54.9658 19.291 54.9658Z" stroke="#7EB693" stroke-width="2" stroke-miterlimit="10"/>
</svg>
